<?xml version="1.0" encoding="UTF-8"?>
<svg width="153px" height="212px" viewBox="0 0 153 212" version="1.1" xmlns="http://www.w3.org/2000/svg" xmlns:xlink="http://www.w3.org/1999/xlink">
    <!-- Generator: Sketch 59.1 (86144) - https://sketch.com -->
    <title>bill copy</title>
    <desc>Created with Sketch.</desc>
    <g id="Round-3" stroke="none" stroke-width="1" fill="none" fill-rule="evenodd">
        <g id="bill-copy">
            <polygon id="Path" fill="#DCF4ED" fill-rule="nonzero" points="0.28 0 152.28 0 152.28 184.68 122.32 211.28 0.28 211.28"></polygon>
            <polygon id="Path" fill="#2479FF" fill-rule="nonzero" points="0.28 0 152.28 0 152.28 48.64 0.28 48.64"></polygon>
            <polygon id="Path" fill="#41EF8C" fill-rule="nonzero" points="0.28 48.64 152.28 48.64 152.28 53.96 0.28 53.96"></polygon>
            <g id="Group" transform="translate(112.000000, 124.000000)">
                <path d="M18.653,5.172 C18.653,7.554 14.332,14.452 14.332,14.452 C14.332,14.452 10.016,7.539 10.016,5.172 C10.098,2.787 12.099,0.921 14.484,1.002 C16.753,1.081 18.574,2.902 18.653,5.172 M25.763,18.377 C24.463,20.383 17.085,23.837 17.085,23.837 C17.085,23.837 17.219,15.686 18.513,13.685 C19.809,11.683 22.483,11.11 24.484,12.405 C26.486,13.702 27.059,16.375 25.764,18.377 M25.449,40.945 C23.319,42.023 15.204,41.28 15.204,41.28 C15.204,41.28 19.431,34.309 21.561,33.237 C23.689,32.163 26.286,33.018 27.359,35.147 C28.432,37.276 27.577,39.872 25.449,40.945 M21.37,57.97 C19.452,59.388 11.326,60.033 11.326,60.033 C11.326,60.033 14.316,52.449 16.235,51.031 C18.152,49.607 20.861,50.007 22.285,51.925 C23.71,53.843 23.308,56.552 21.391,57.976 L21.37,57.97 Z M8.021,24.302 C9.727,25.962 17.699,27.684 17.699,27.684 C17.699,27.684 15.745,19.769 14.038,18.109 C12.349,16.427 9.617,16.433 7.934,18.122 C6.252,19.811 6.258,22.542 7.948,24.225 C7.971,24.249 7.996,24.273 8.021,24.295 L8.021,24.302 L8.021,24.302 Z M3.499,44.281 C5.629,45.359 13.744,44.616 13.744,44.616 C13.744,44.616 9.517,37.645 7.387,36.573 C5.251,35.499 2.649,36.36 1.576,38.496 C0.502,40.632 1.363,43.233 3.499,44.307 L3.499,44.281 Z M1.766,64.277 C3.684,65.695 11.81,66.34 11.81,66.34 C11.81,66.34 8.82,58.755 6.902,57.337 C4.985,55.913 2.278,56.312 0.853,58.228 C-0.571,60.145 -0.171,62.853 1.745,64.278 L1.766,64.278 L1.766,64.277 Z" id="Shape" fill="#00EF86" fill-rule="nonzero"></path>
                <path d="M25.763,18.377 C24.463,20.383 17.085,23.837 17.085,23.837 C17.085,23.837 17.219,15.686 18.513,13.685 C19.809,11.683 22.483,11.11 24.484,12.405 C26.486,13.702 27.059,16.375 25.764,18.377 M25.449,40.945 C23.319,42.023 15.204,41.28 15.204,41.28 C15.204,41.28 19.431,34.309 21.561,33.237 C23.689,32.163 26.286,33.018 27.359,35.147 C28.432,37.276 27.577,39.872 25.449,40.945 M21.37,57.97 C19.452,59.388 11.326,60.033 11.326,60.033 C11.326,60.033 14.316,52.449 16.235,51.031 C18.152,49.607 20.861,50.007 22.285,51.925 C23.71,53.843 23.308,56.552 21.391,57.976 L21.37,57.97 Z M8.021,24.302 C9.727,25.962 17.699,27.684 17.699,27.684 C17.699,27.684 15.745,19.769 14.038,18.109 C12.349,16.427 9.617,16.433 7.934,18.122 C6.252,19.811 6.258,22.542 7.948,24.225 C7.971,24.249 7.996,24.273 8.021,24.295 L8.021,24.302 L8.021,24.302 Z M3.499,44.281 C5.629,45.359 13.744,44.616 13.744,44.616 C13.744,44.616 9.517,37.645 7.387,36.573 C5.251,35.499 2.649,36.36 1.576,38.496 C0.502,40.632 1.363,43.233 3.499,44.307 L3.499,44.281 Z M1.766,64.277 C3.684,65.695 11.81,66.34 11.81,66.34 C11.81,66.34 8.82,58.755 6.902,57.337 C4.985,55.913 2.278,56.312 0.853,58.228 C-0.571,60.145 -0.171,62.853 1.745,64.278 L1.766,64.278 L1.766,64.277 Z" id="Shape" fill="#00EF86" fill-rule="nonzero"></path>
                <path d="M13.564,76.322 C13.564,76.322 7.83,56.867 14.636,42.549 C17.524,36.559 18.39,29.794 17.106,23.27 C16.472,20.177 15.559,17.148 14.378,14.22" id="Path" stroke="#00A14D" stroke-linecap="round"></path>
            </g>
            <polygon id="Path" fill="#B6DCE5" fill-rule="nonzero" points="125.68 184.68 152.28 184.68 125.68 211.28"></polygon>
        </g>
    </g>
</svg>